<svg xmlns="http://www.w3.org/2000/svg" viewBox="0 0 64 64" role="img" aria-label="Rumbo">
  <g fill="none" stroke="#075A7D" stroke-width="3" stroke-linecap="round" stroke-linejoin="round">
    <!-- rayos de sol -->
    <line x1="32" y1="3" x2="32" y2="9" stroke="#FFB23E"/>
    <line x1="50" y1="14" x2="46" y2="18" stroke="#FFB23E"/>
    <line x1="61" y1="32" x2="55" y2="32" stroke="#FFB23E"/>
    <line x1="50" y1="50" x2="46" y2="46" stroke="#FFB23E"/>
    <line x1="32" y1="61" x2="32" y2="55" stroke="#FFB23E"/>
    <line x1="14" y1="50" x2="18" y2="46" stroke="#FFB23E"/>
    <line x1="3" y1="32" x2="9" y2="32" stroke="#FFB23E"/>
    <line x1="14" y1="14" x2="18" y2="18" stroke="#FFB23E"/>
  </g>
  <circle cx="32" cy="32" r="20" fill="#DCEFFB" stroke="#0B7FB0" stroke-width="3"/>
  <!-- aguja brújula -->
  <polygon points="32,18 37,32 32,30 27,32" fill="#C7452A"/>
  <polygon points="32,46 27,32 32,34 37,32" fill="#FFFFFF" stroke="#0B7FB0" stroke-width="1.5"/>
  <!-- cara amable -->
  <circle cx="26" cy="33" r="1.8" fill="#1E2433"/>
  <circle cx="38" cy="33" r="1.8" fill="#1E2433"/>
  <path d="M27 39 q5 4 10 0" fill="none" stroke="#1E2433" stroke-width="2" stroke-linecap="round"/>
</svg>
